<svg width="15" height="16" viewBox="0 0 15 16" fill="none" xmlns="http://www.w3.org/2000/svg">
<path d="M9.96686 15.094C9.80215 14.6616 9.74748 14.2297 9.69269 13.7731C8.47955 15.0135 6.69066 15.4961 4.98746 15.4961C2.2595 15.4961 0.114258 14.1487 0.114258 11.2692C0.114258 6.7177 5.17584 7.0718 8.42803 6.42248C9.22315 6.26192 9.66518 5.99207 9.66518 5.13059C9.66518 4.0813 8.36985 3.6757 7.40687 3.6757C6.11493 3.6757 5.28914 4.24054 5.06604 5.42536H0.689996C0.772067 3.59332 1.65298 2.40839 2.92091 1.6842C4.18885 0.983717 5.83726 0.713867 7.46177 0.713867C10.8509 0.713867 14.1235 1.43971 14.1235 5.39867V15.094H9.96686ZM6.74872 12.6704C8.97637 12.6704 9.71997 11.4301 9.61039 8.54985C8.94909 8.95357 7.73921 9.03407 6.72122 9.30458C5.67267 9.54609 4.79209 9.97915 4.79209 11.0813C4.79209 12.2111 5.70029 12.6704 6.74872 12.6704Z" fill="#3E4581"/>
</svg>
