<svg width="14" height="14" viewBox="0 0 14 14" fill="none" xmlns="http://www.w3.org/2000/svg">
<path d="M10.7022 1.66514C9.68502 0.971673 8.51374 0.609863 7.18836 0.609863C6.04792 0.609863 4.96913 0.881221 4.07526 1.39379C2.07178 2.53952 0.838867 4.71038 0.838867 7.03199C0.838867 9.38376 2.04096 11.4943 4.07526 12.64C4.96913 13.1526 6.14039 13.4541 7.25001 13.4541C8.51375 13.4541 9.71584 13.0923 10.7022 12.429V13.2129H13.6303V0.85107H10.7022V1.66514ZM10.6097 9.1727C9.86995 10.1074 8.72951 10.6802 7.55824 10.6802C5.46229 10.6802 3.82868 9.08225 3.82868 7.06214C3.82868 4.98174 5.36982 3.44404 7.43495 3.44404C8.63704 3.44404 9.83913 4.01691 10.6097 4.95159V9.1727Z" fill="#3E4581"/>
</svg>
