<svg width="36" height="37" viewBox="0 0 36 37" fill="none" xmlns="http://www.w3.org/2000/svg">
<path d="M36 18.7237C36 23.4951 34.1035 28.0713 30.728 31.4453C27.3524 34.819 22.7738 36.7146 18 36.7146C13.2261 36.7146 8.64774 34.819 5.27209 31.4453C1.89642 28.0713 0 23.4951 0 18.7237C0 13.9523 1.89642 9.37624 5.27209 6.00231C8.64774 2.62837 13.2261 0.73291 18 0.73291C22.7738 0.73291 27.3524 2.62837 30.728 6.00231C34.1035 9.37624 36 13.9523 36 18.7237Z" fill="url(#paint0_linear_27_4)"/>
<g filter="url(#filter0_d_27_4)">
<path d="M11.6992 31.207C11.6992 32.3944 14.5185 32.2055 17.9992 32.2055C21.4777 32.2055 24.2992 32.3944 24.2992 31.207C24.2992 29.7768 21.4777 28.8435 17.9992 28.8435C14.5185 28.8435 11.6992 29.7768 11.6992 31.207Z" fill="#222222"/>
</g>
<path d="M11.6992 31.207C11.6992 32.3944 14.5185 32.2055 17.9992 32.2055C21.4777 32.2055 24.2992 32.3944 24.2992 31.207C24.2992 29.7768 21.4777 28.8435 17.9992 28.8435C14.5185 28.8435 11.6992 29.7768 11.6992 31.207Z" fill="url(#paint1_linear_27_4)"/>
<path d="M8.09783 22.8419C8.09783 21.063 9.30835 19.6238 10.7978 19.6238C12.2896 19.6238 13.4978 21.063 13.4978 22.8419C13.4978 23.5818 13.2886 24.2654 12.9308 24.8074C12.7637 25.057 12.5079 25.2338 12.2153 25.3022C11.8778 25.3831 11.3761 25.4708 10.7978 25.4708C10.2196 25.4708 9.7156 25.3831 9.38035 25.3022C9.08744 25.2345 8.83151 25.0575 8.66483 24.8074C8.28813 24.2216 8.09105 23.5384 8.09783 22.8419ZM22.4978 22.8419C22.4978 21.063 23.7061 19.6238 25.1979 19.6238C26.6874 19.6238 27.8979 21.063 27.8979 22.8419C27.8979 23.5818 27.6864 24.2654 27.3309 24.8074C27.1641 25.0575 26.9083 25.2345 26.6154 25.3022C26.151 25.4132 25.6753 25.4697 25.1979 25.4708C24.6196 25.4708 24.1179 25.3831 23.7804 25.3022C23.4872 25.2338 23.2307 25.057 23.0626 24.8074C22.6875 24.2209 22.4914 23.5379 22.4978 22.8419Z" fill="url(#paint2_linear_27_4)"/>
<g filter="url(#filter1_i_27_4)">
<path d="M8.09783 22.8419C8.09783 21.063 9.30835 19.6238 10.7978 19.6238C12.2896 19.6238 13.4978 21.063 13.4978 22.8419C13.4978 23.5818 13.2886 24.2654 12.9308 24.8074C12.7637 25.057 12.5079 25.2338 12.2153 25.3022C11.8778 25.3831 11.3761 25.4708 10.7978 25.4708C10.2196 25.4708 9.7156 25.3831 9.38035 25.3022C9.08744 25.2345 8.83151 25.0575 8.66483 24.8074C8.28813 24.2216 8.09105 23.5384 8.09783 22.8419ZM22.4978 22.8419C22.4978 21.063 23.7061 19.6238 25.1979 19.6238C26.6874 19.6238 27.8979 21.063 27.8979 22.8419C27.8979 23.5818 27.6864 24.2654 27.3309 24.8074C27.1641 25.0575 26.9083 25.2345 26.6154 25.3022C26.151 25.4132 25.6753 25.4697 25.1979 25.4708C24.6196 25.4708 24.1179 25.3831 23.7804 25.3022C23.4872 25.2338 23.2307 25.057 23.0626 24.8074C22.6875 24.2209 22.4914 23.5379 22.4978 22.8419Z" fill="#222222"/>
</g>
<path d="M11.1808 21.7201C11.1918 21.7726 11.1971 21.8262 11.1965 21.8798C11.1965 22.3321 10.8005 22.7033 10.31 22.7033C9.82178 22.7033 9.42578 22.3321 9.42578 21.8798C9.42578 21.6931 9.49328 21.5198 9.60578 21.3826C10.1098 21.5018 10.6385 21.6166 11.1808 21.7201ZM24.5143 22.7033C24.0396 22.7033 23.6526 22.3591 23.6301 21.9203C24.2128 21.8348 24.7911 21.7291 25.3536 21.6143C25.3846 21.7001 25.3999 21.7908 25.3986 21.8821C25.3986 22.3321 25.0048 22.7033 24.5143 22.7033Z" fill="#4F4F67"/>
<g filter="url(#filter2_d_27_4)">
<path d="M20.2491 17.8242C20.2491 16.8212 20.6158 16.4749 21.2503 16.4749C21.8803 16.4749 22.1818 17.0955 22.3888 18.8721C24.9268 18.8721 29.2243 17.6712 29.6383 17.6712C30.0388 17.6712 30.2616 17.8624 30.3516 18.2717C30.4303 18.627 30.2998 18.9643 29.8543 19.1712C28.4571 19.8166 24.3576 21.2739 20.8903 21.2739C20.5123 21.2739 20.2491 21.0805 20.2491 20.597V17.8242ZM13.6093 18.8721C13.8163 17.0955 14.1178 16.4749 14.7478 16.4749C15.3823 16.4749 15.7491 16.8212 15.7491 17.8242V20.597C15.7491 21.0805 15.4858 21.2739 15.1078 21.2739C11.6406 21.2739 7.54107 19.8166 6.14382 19.1712C5.69832 18.9643 5.56782 18.627 5.64657 18.2717C5.73882 17.8624 5.96157 17.6712 6.35982 17.6712C6.77382 17.6712 11.0713 18.8721 13.6093 18.8721Z" fill="#222222"/>
</g>
<path d="M20.2491 17.8242C20.2491 16.8212 20.6158 16.4749 21.2503 16.4749C21.8803 16.4749 22.1818 17.0955 22.3888 18.8721C24.9268 18.8721 29.2243 17.6712 29.6383 17.6712C30.0388 17.6712 30.2616 17.8624 30.3516 18.2717C30.4303 18.627 30.2998 18.9643 29.8543 19.1712C28.4571 19.8166 24.3576 21.2739 20.8903 21.2739C20.5123 21.2739 20.2491 21.0805 20.2491 20.597V17.8242ZM13.6093 18.8721C13.8163 17.0955 14.1178 16.4749 14.7478 16.4749C15.3823 16.4749 15.7491 16.8212 15.7491 17.8242V20.597C15.7491 21.0805 15.4858 21.2739 15.1078 21.2739C11.6406 21.2739 7.54107 19.8166 6.14382 19.1712C5.69832 18.9643 5.56782 18.627 5.64657 18.2717C5.73882 17.8624 5.96157 17.6712 6.35982 17.6712C6.77382 17.6712 11.0713 18.8721 13.6093 18.8721Z" fill="url(#paint3_linear_27_4)"/>
<defs>
<filter id="filter0_d_27_4" x="10.6992" y="28.8435" width="14.6" height="5.37305" filterUnits="userSpaceOnUse" color-interpolation-filters="sRGB">
<feFlood flood-opacity="0" result="BackgroundImageFix"/>
<feColorMatrix in="SourceAlpha" type="matrix" values="0 0 0 0 0 0 0 0 0 0 0 0 0 0 0 0 0 0 127 0" result="hardAlpha"/>
<feOffset dy="1"/>
<feGaussianBlur stdDeviation="0.5"/>
<feColorMatrix type="matrix" values="0 0 0 0 1 0 0 0 0 0.509681 0 0 0 0 0 0 0 0 0.371207 0"/>
<feBlend mode="normal" in2="BackgroundImageFix" result="effect1_dropShadow_27_4"/>
<feBlend mode="normal" in="SourceGraphic" in2="effect1_dropShadow_27_4" result="shape"/>
</filter>
<filter id="filter1_i_27_4" x="8.09766" y="19.6238" width="19.8002" height="5.84692" filterUnits="userSpaceOnUse" color-interpolation-filters="sRGB">
<feFlood flood-opacity="0" result="BackgroundImageFix"/>
<feBlend mode="normal" in="SourceGraphic" in2="BackgroundImageFix" result="shape"/>
<feColorMatrix in="SourceAlpha" type="matrix" values="0 0 0 0 0 0 0 0 0 0 0 0 0 0 0 0 0 0 127 0" result="hardAlpha"/>
<feOffset/>
<feGaussianBlur stdDeviation="0.5"/>
<feComposite in2="hardAlpha" operator="arithmetic" k2="-1" k3="1"/>
<feColorMatrix type="matrix" values="0 0 0 0 0.0387428 0 0 0 0 0.0406183 0 0 0 0 0.0875053 0 0 0 1 0"/>
<feBlend mode="normal" in2="shape" result="effect1_innerShadow_27_4"/>
</filter>
<filter id="filter2_d_27_4" x="5.525" y="16.4749" width="24.9482" height="5.49907" filterUnits="userSpaceOnUse" color-interpolation-filters="sRGB">
<feFlood flood-opacity="0" result="BackgroundImageFix"/>
<feColorMatrix in="SourceAlpha" type="matrix" values="0 0 0 0 0 0 0 0 0 0 0 0 0 0 0 0 0 0 127 0" result="hardAlpha"/>
<feOffset dy="0.6"/>
<feGaussianBlur stdDeviation="0.05"/>
<feColorMatrix type="matrix" values="0 0 0 0 0.565875 0 0 0 0 0.151272 0 0 0 0 0 0 0 0 0.15024 0"/>
<feBlend mode="normal" in2="BackgroundImageFix" result="effect1_dropShadow_27_4"/>
<feBlend mode="normal" in="SourceGraphic" in2="effect1_dropShadow_27_4" result="shape"/>
</filter>
<linearGradient id="paint0_linear_27_4" x1="18" y1="0.73291" x2="18" y2="24.9103" gradientUnits="userSpaceOnUse">
<stop stop-color="#E04300"/>
<stop offset="1" stop-color="#FFA320"/>
</linearGradient>
<linearGradient id="paint1_linear_27_4" x1="17.9988" y1="29.3" x2="17.9988" y2="32.2168" gradientUnits="userSpaceOnUse">
<stop stop-color="#3D0D00"/>
<stop offset="1" stop-color="#661C04"/>
</linearGradient>
<linearGradient id="paint2_linear_27_4" x1="17.9985" y1="19.6229" x2="17.9985" y2="25.4699" gradientUnits="userSpaceOnUse">
<stop stop-color="#191A33"/>
<stop offset="0.872" stop-color="#3B426A"/>
</linearGradient>
<linearGradient id="paint3_linear_27_4" x1="26.1337" y1="21.7214" x2="26.1337" y2="16.4749" gradientUnits="userSpaceOnUse">
<stop stop-color="#9A2F00"/>
<stop offset="1" stop-color="#D44800"/>
</linearGradient>
</defs>
</svg>
