<svg width="318" height="275" viewBox="0 0 318 275" fill="none" xmlns="http://www.w3.org/2000/svg">
<path opacity="0.1" d="M13.5379 70C13.4178 68.2108 14.3234 66.5085 15.8746 65.6089L40.7948 51.156L43.0167 22.4338C43.155 20.6459 44.2965 19.0917 45.9608 18.4245C47.6251 17.7573 49.5242 18.0927 50.8593 19.2903L72.3055 38.5246L100.309 31.762C102.052 31.3411 103.883 31.9462 105.032 33.323C106.181 34.6999 106.448 36.6096 105.722 38.2491L94.056 64.5894L109.141 89.132C110.08 90.6596 110.071 92.5881 109.116 94.1062C108.162 95.6245 106.428 96.4692 104.645 96.2852L75.9884 93.3301L57.3084 115.261C56.1367 116.636 54.2957 117.209 52.5698 116.774C50.8311 116.336 49.4919 114.948 49.1155 113.195L43.071 85.0279L16.4412 74.0393C14.7837 73.355 13.6582 71.7892 13.5379 70Z" fill="#FCB901"/>
<path d="M68.6961 62.823C90.9806 68.0276 113.142 74.0494 135.426 79.2542C139.626 80.2229 140.16 86.656 135.826 87.6741C127.74 90.2979 119.891 92.456 111.804 95.0798C119.606 98.7658 127.095 97.8904 135.875 96.2075C139.619 95.7699 143.943 95.9212 146.252 99.446C149.949 104.853 146.14 113.472 144.458 119.069C140.137 133.295 134.065 146.923 131.492 161.748C128.9 178.91 139.562 175.839 150.137 168.91C161.416 161.753 171.896 152.135 180.742 142.27C196.077 124.859 211.545 105.462 232.668 95.1112C244.403 89.3605 265.091 89.6429 269.407 105.341C274.864 124.554 267.874 150.916 257.803 167.785C253.053 177.098 213.32 234.291 244.811 228.347C267.874 223.973 289.014 196.907 303.76 180.075C305.764 177.871 309.366 180.588 307.827 183.03C295.401 202.217 277.49 220.075 257.641 231.956C246.837 238.182 224.135 241.273 223.23 222.914C222.116 201.514 240.045 181.318 250.704 163.87C257.687 153.055 260.726 138.468 262.929 126.095C267.582 99.7152 246.695 95.2232 228.128 107.465C205.447 122.596 190.874 147.143 170.625 164.983C163.328 171.237 139.309 193.02 127.827 181.59C114.607 168.392 127.804 140.794 132.942 126.692C132.819 127.509 141.891 103.97 138.384 103.942C134.877 103.914 131.01 105.169 127.266 105.606C120.13 106.367 113.943 105.265 108.241 102.064C110.76 108.63 112.576 115.424 113.689 122.446C114.127 126.19 108.967 128.253 106.296 126.011C88.5431 109.621 78.4294 88.032 64.0873 68.981C61.6545 66.2736 64.8468 61.7404 68.6961 62.823ZM98.9468 94.9764C98.2623 92.8669 99.7921 91.5933 101.313 91.4886C101.673 90.2057 102.5 89.1603 103.906 88.704C108.477 87.2209 113.399 85.6238 117.97 84.1408C104.438 80.7596 91.2562 77.2646 77.724 73.8834C85.9264 85.9887 93.1881 98.7879 102.569 109.733C101.438 105.049 100.192 100.013 98.9468 94.9764Z" fill="#425269"/>
</svg>
