<svg width="150" height="141" viewBox="0 0 150 141" fill="none" xmlns="http://www.w3.org/2000/svg">
<path d="M142.793 105.231C142.854 106.146 142.391 107.015 141.599 107.475L128.865 114.86L127.73 129.537C127.659 130.45 127.076 131.245 126.225 131.585C125.375 131.926 124.405 131.755 123.722 131.143L112.764 121.315L98.4546 124.77C97.564 124.985 96.6283 124.676 96.0412 123.973C95.4542 123.269 95.3175 122.293 95.6885 121.455L101.65 107.996L93.9414 95.4553C93.4616 94.6747 93.4665 93.6893 93.9542 92.9135C94.442 92.1377 95.3276 91.7061 96.2391 91.8001L110.882 93.3101L120.427 82.1039C121.026 81.4012 121.966 81.1083 122.848 81.3307C123.737 81.5548 124.421 82.2638 124.613 83.1597L127.702 97.5524L141.309 103.167C142.156 103.517 142.731 104.317 142.793 105.231Z" fill="#FCB901"/>
<path d="M142.793 105.231C142.854 106.146 142.391 107.015 141.599 107.475L128.865 114.86L127.73 129.537C127.659 130.45 127.076 131.245 126.225 131.585C125.375 131.926 124.405 131.755 123.722 131.143L112.764 121.315L98.4546 124.77C97.564 124.985 96.6283 124.676 96.0412 123.973C95.4542 123.269 95.3175 122.293 95.6885 121.455L101.65 107.996L93.9414 95.4553C93.4616 94.6747 93.4665 93.6893 93.9542 92.9135C94.442 92.1377 95.3276 91.7061 96.2391 91.8001L110.882 93.3101L120.427 82.1039C121.026 81.4012 121.966 81.1083 122.848 81.3307C123.737 81.5548 124.421 82.2638 124.613 83.1597L127.702 97.5524L141.309 103.167C142.156 103.517 142.731 104.317 142.793 105.231Z" fill="url(#paint0_linear_7_5)"/>
<path d="M114.608 108.899C103.221 106.239 91.8973 103.162 80.5106 100.503C78.3643 100.008 78.0917 96.7206 80.306 96.2003C84.438 94.8596 88.4487 93.7569 92.5807 92.4162C88.594 90.5327 84.7674 90.98 80.2812 91.8399C78.3681 92.0635 76.1584 91.9862 74.9786 90.1851C73.0894 87.4225 75.036 83.0181 75.895 80.158C78.1034 72.8887 81.2056 65.9252 82.5205 58.3501C83.845 49.5805 78.3971 51.1496 72.9932 54.6902C67.2299 58.3472 61.8747 63.2619 57.3547 68.3027C49.5188 77.1994 41.6151 87.1112 30.8215 92.4001C24.8251 95.3386 14.2542 95.1943 12.0486 87.1727C9.26026 77.3551 12.8322 63.8847 17.9781 55.2652C20.4053 50.5063 40.7081 21.282 24.6167 24.3189C12.8322 26.5541 2.03007 40.3845 -5.50485 48.9849C-6.52926 50.1116 -8.36975 48.7231 -7.58328 47.4751C-1.23351 37.671 7.91829 28.546 18.061 22.475C23.5816 19.2938 35.1816 17.7142 35.6441 27.0954C36.2137 38.0303 27.0523 48.3499 21.6054 57.2656C18.0372 62.7919 16.4843 70.2456 15.3586 76.5678C12.9811 90.0475 23.6542 92.3429 33.1414 86.0875C44.7311 78.356 52.1777 65.8126 62.5243 56.697C66.253 53.5015 78.5265 42.3707 84.3932 48.2113C91.1484 54.9549 84.4053 69.0569 81.7796 76.263C81.8427 75.8454 77.2071 87.8735 78.9991 87.8878C80.7909 87.9021 82.7668 87.261 84.68 87.0377C88.3265 86.6484 91.488 87.2115 94.4013 88.8476C93.1141 85.4925 92.1862 82.0208 91.6177 78.4325C91.394 76.5194 94.0306 75.4653 95.3952 76.6111C104.467 84.986 109.635 96.0174 116.963 105.752C118.206 107.136 116.575 109.452 114.608 108.899ZM99.1506 92.469C99.5003 93.5469 98.7187 94.1977 97.9417 94.2512C97.7573 94.9067 97.3349 95.4409 96.6163 95.6741C94.2808 96.4319 91.7657 97.248 89.4302 98.0058C96.3449 99.7335 103.08 101.519 109.995 103.247C105.804 97.0615 102.093 90.5214 97.2997 84.9286C97.8777 87.3221 98.5142 89.8956 99.1506 92.469Z" fill="#E3EAF3"/>
<defs>
<linearGradient id="paint0_linear_7_5" x1="102.182" y1="137.171" x2="150.847" y2="117.697" gradientUnits="userSpaceOnUse">
<stop stop-color="#AE67FA"/>
<stop offset="0.973958" stop-color="#F49867"/>
</linearGradient>
</defs>
</svg>
