<svg width="14" height="19" viewBox="0 0 14 19" fill="none" xmlns="http://www.w3.org/2000/svg">
<path d="M11.3741 8.41392C11.2199 8.26316 11.035 8.14256 10.8501 8.05211C11.559 7.20788 11.9289 6.12245 11.9289 5.00687C11.9289 3.52948 11.2508 2.14254 10.0795 1.20787C9.15481 0.454095 7.98354 0.0922852 6.4424 0.0922852H0.03125V5.00687V7.17773V9.89131V12.6953V18.2431H7.24379C9.00069 18.2431 10.3261 17.8511 11.3432 17.0069C12.6686 15.9516 13.4392 14.3838 13.4392 12.7255C13.47 11.037 12.6994 9.4692 11.3741 8.41392ZM3.23682 3.01692H5.85677C7.33626 3.01692 7.82943 3.31843 8.10683 3.65008C8.44588 4.01189 8.66164 4.49431 8.66164 5.00687C8.66164 5.51944 8.47671 5.9717 8.10683 6.36366C7.7986 6.69532 7.33626 6.99683 5.85677 6.99683H3.23682C3.23682 6.99683 3.23682 3.01692 3.23682 3.01692ZM9.43221 14.4742C9.00069 14.8963 8.35341 15.2883 6.65816 15.2883H3.23682V9.95161H6.68898C8.38424 9.95161 9.00069 10.3436 9.43221 10.7657C9.92538 11.2782 10.2028 11.9416 10.2028 12.6049C10.2028 13.2984 9.92538 13.9617 9.43221 14.4742Z" fill="#3E4581"/>
</svg>
