<svg width="40" height="30" viewBox="0 0 40 30" fill="none" xmlns="http://www.w3.org/2000/svg">
<path fill-rule="evenodd" clip-rule="evenodd" d="M25.0542 13.1438L35.2217 1.11299C36.3234 -0.190752 37.7766 -0.3586 38.999 0.659606C40.2214 1.67808 40.3074 3.12852 39.2057 4.43199L22.2162 24.5233C17.5413 30.0553 9.25163 31.0182 3.40676 26.1487C2.18273 25.1288 1.19629 23.9558 0.443359 22.6887L2.62105 20.105C3.25519 19.3531 4.44317 19.4372 4.96424 20.2705C5.39874 20.9652 5.96788 21.6211 6.66429 22.2095C9.97452 24.9135 14.7939 24.8541 17.8969 21.5742C17.901 21.5699 18.1593 21.2865 18.2273 21.2062L25.0542 13.1438Z" fill="#3E4581"/>
</svg>
