<svg width="41" height="25" viewBox="0 0 41 25" fill="none" xmlns="http://www.w3.org/2000/svg">
<path fill-rule="evenodd" clip-rule="evenodd" d="M9.74647 15.7163C9.97532 15.0628 10.0611 14.2388 10.0611 12.8748C10.0611 11.5106 9.97532 10.715 9.74647 10.0331C9.28848 8.66914 8.2294 7.9869 6.71288 7.9869C5.19581 7.9869 4.16541 8.69734 3.70769 10.0331C3.47856 10.772 3.39254 11.653 3.39254 12.8748C3.39254 14.1252 3.47856 15.0059 3.70769 15.7163C4.16541 17.0521 5.19581 17.7907 6.71288 17.7907C8.2294 17.7907 9.28848 17.0803 9.74647 15.7163ZM10.3473 19.6948C10.1758 19.6948 10.0611 19.5812 10.0611 19.4106V18.1036H10.0327C9.3745 19.1831 8.201 20.0072 6.14019 20.0072C3.76505 20.0072 2.10488 18.8989 1.41803 16.7391C1.04607 15.6596 0.931641 14.5799 0.931641 12.8748C0.931641 11.1983 1.04607 10.1182 1.41803 9.03846C2.10488 6.87867 3.76505 5.77044 6.14019 5.77044C8.201 5.77044 9.3745 6.56629 10.0327 7.64578H10.0611V0.655541C10.0611 0.484981 10.1758 0.371094 10.3473 0.371094H12.179C12.3507 0.371094 12.4652 0.484981 12.4652 0.655541V19.4106C12.4652 19.5812 12.3507 19.6948 12.179 19.6948H10.3473ZM24.2575 15.2902V13.784C24.2575 13.6703 24.2002 13.6134 24.0858 13.6134H21.3384C18.9627 13.6134 17.9323 14.2956 17.9323 15.8299C17.9323 17.2225 18.9627 17.9614 20.7944 17.9614C22.9409 17.9614 24.2575 16.9668 24.2575 15.2902ZM24.6008 19.6947C24.429 19.6947 24.3146 19.5811 24.3146 19.4105V18.2172H24.2859C23.6564 19.24 22.3112 20.0074 20.222 20.0074C17.6177 20.0074 15.6142 18.6719 15.6142 15.9153C15.6142 13.0453 17.6177 11.7096 20.9661 11.7096H24.0858C24.2002 11.7096 24.2575 11.6529 24.2575 11.539V10.5444C24.2575 8.66906 23.5131 7.8732 20.9661 7.8732C19.4207 7.8732 18.4476 8.27099 17.6461 8.83962C17.5033 8.95323 17.3315 8.95323 17.2454 8.81087L16.4726 7.50388C16.3871 7.33332 16.4155 7.21971 16.5299 7.10609C17.5603 6.31051 19.1631 5.77063 21.195 5.77063C25.0875 5.77063 26.5756 7.04915 26.5756 10.4026V19.4105C26.5756 19.5811 26.4612 19.6947 26.2894 19.6947H24.6008ZM30.2972 24.8097C30.1254 24.8097 30.011 24.6961 30.011 24.5256V22.8774C30.011 22.7069 30.1254 22.5933 30.2972 22.5933H30.8125C31.9287 22.5933 32.5295 22.1103 33.1306 20.5471L33.5886 19.297L28.5513 6.36704C28.4939 6.19675 28.5799 6.08287 28.7801 6.08287H30.7836C30.9554 6.08287 31.0698 6.16828 31.1271 6.36704L34.7331 16.1996H34.7905L38.2537 6.36704C38.3107 6.16828 38.4254 6.08287 38.5969 6.08287H40.5433C40.7148 6.08287 40.8293 6.19675 40.7719 6.36704L35.3629 20.7464C34.1607 23.9572 33.1019 24.8097 31.0414 24.8097H30.2972Z" fill="#3E4581"/>
</svg>
