<svg width="13" height="14" viewBox="0 0 13 14" fill="none" xmlns="http://www.w3.org/2000/svg">
<path d="M6.50343 0.609863C2.92799 0.609863 0.338867 3.32344 0.338867 7.06214C0.338867 10.7405 3.14375 13.5144 6.87331 13.5144C10.0172 13.5144 11.62 11.8863 12.1748 11.1928L12.3289 10.9818L10.3255 9.14255L10.1405 9.35361C9.46243 10.1074 8.50692 10.8611 6.87331 10.8611C5.05476 10.8611 3.54444 9.56466 3.26704 7.84607H12.5139L12.5447 7.60486C12.5755 7.36365 12.5755 7.18275 12.5755 7.06214C12.5755 3.38374 9.95559 0.609863 6.50343 0.609863ZM3.57526 5.25309C4.06843 4.04706 5.2397 3.23299 6.59591 3.23299C7.798 3.23299 8.96926 4.07721 9.40078 5.25309H3.57526Z" fill="#3E4581"/>
</svg>
