<svg width="56" height="32" viewBox="0 0 56 32" fill="none" xmlns="http://www.w3.org/2000/svg">
<path fill-rule="evenodd" clip-rule="evenodd" d="M41.0451 13.1421C40.441 10.418 38.9538 7.84199 36.5617 5.84923C30.7168 0.979466 22.4274 1.94263 17.7525 7.47457L17.7522 7.47484L17.752 7.47511L0.771739 27.5678C-0.329943 28.8716 -0.24419 30.3217 0.978203 31.3402C2.20059 32.3587 3.65403 32.1906 4.75571 30.8871L14.9229 18.856L21.6895 10.8494L21.6909 10.8505C21.7062 10.8318 21.7206 10.8125 21.7362 10.7941C21.8288 10.6846 21.9233 10.5788 22.0191 10.4755C22.0347 10.459 22.0511 10.443 22.0667 10.4261C25.1696 7.14619 30.051 7.08681 33.258 9.75855C33.258 9.75855 33.2771 9.77048 33.3132 9.79028C37.08 12.9734 36.8798 18.071 34.2319 21.2042C34.1396 21.3135 33.9173 21.5554 33.9014 21.5719C30.7987 24.8519 25.9911 24.9224 22.6552 22.2078C21.9588 21.6194 21.3981 20.9656 20.9636 20.2706C20.4425 19.4373 19.2546 19.3533 18.6207 20.1055L16.443 22.6888C17.1957 23.9562 18.1821 25.129 19.4064 26.1491C25.2513 31.0186 33.5406 30.0554 38.2156 24.5238C38.2156 24.5238 41.9521 20.2215 41.0451 13.1421Z" fill="#3E4581"/>
<path fill-rule="evenodd" clip-rule="evenodd" d="M41.0542 13.1438L51.2217 1.11299C52.3234 -0.190752 53.7766 -0.3586 54.999 0.659606C56.2214 1.67808 56.3074 3.12852 55.2057 4.43199L38.2162 24.5233C33.5413 30.0553 25.2516 31.0182 19.4068 26.1487C18.1827 25.1288 17.1963 23.9558 16.4434 22.6887L18.6211 20.105C19.2552 19.3531 20.4432 19.4372 20.9642 20.2705C21.3987 20.9652 21.9679 21.6211 22.6643 22.2095C25.9745 24.9135 30.7939 24.8541 33.8969 21.5742C33.901 21.5699 34.1593 21.2865 34.2273 21.2062L41.0542 13.1438Z" fill="#3E4581"/>
</svg>
