<svg width="572" height="680" viewBox="0 0 572 680" fill="none" xmlns="http://www.w3.org/2000/svg">
<rect x="50" y="25" width="475" height="580" rx="25" fill="#ECEEFF"/>
<mask id="mask0_603_71" style="mask-type:alpha" maskUnits="userSpaceOnUse" x="50" y="25" width="475" height="580">
<rect x="50" y="25" width="475" height="580" rx="25" fill="#E8F3FB"/>
</mask>
<g mask="url(#mask0_603_71)">
<path fill-rule="evenodd" clip-rule="evenodd" d="M407.368 -93.6318C407.058 -93.9517 406.939 -94.411 407.055 -94.841V-94.841C407.281 -95.6816 406.611 -96.4942 405.743 -96.4234C405.644 -96.4153 405.544 -96.4071 405.445 -96.3988C405.002 -96.3619 404.565 -96.5246 404.256 -96.844L400.762 -100.451C398.633 -102.648 395.126 -102.704 392.929 -100.575V-100.575C389.53 -97.2823 385.988 -93.6583 381.406 -92.4757C370.174 -89.5768 359.966 -85.1757 350.691 -78.8904C330.584 -65.2642 316.588 -43.9544 305.288 -14.7086C293.625 15.4769 290.588 53.4806 289.6 88.372C289.23 101.413 289.139 113.891 289.054 125.554C288.902 146.188 288.77 164.269 287.15 178.402C284.915 197.89 275.68 208.607 265.469 212.24C255.122 215.922 239.433 213.879 221.299 198.487L220.893 198.143C200.807 181.093 167.706 152.996 130.982 136.966C100.012 123.447 64.4267 117.769 31.733 136.115C30.7214 136.683 29.9878 137.647 29.6862 138.767L22.4759 165.543C21.8956 167.698 27.0062 170.077 28.6431 168.56V168.56C56.1639 143.055 88.4027 145.082 121.192 159.395C154.344 173.866 185.012 199.788 205.462 217.145C227.823 236.125 252.487 242.836 273.674 235.297C294.998 227.709 308.478 207.23 311.463 181.19C313.224 165.83 313.385 145.396 313.555 123.689L313.555 123.689L313.555 123.687L313.555 123.685L313.555 123.685C313.644 112.312 313.736 100.589 314.063 89.065C315.047 54.3204 318.098 20.0414 328.117 -5.88831C338.498 -32.7577 350.08 -48.9136 364.42 -58.6312C373.999 -65.1223 385.578 -69.2636 400.365 -71.2445C400.575 -71.2726 400.749 -71.4236 400.804 -71.6277V-71.6277C400.89 -71.9467 401.245 -72.1075 401.541 -71.9597C414.416 -65.5171 428.318 -57.8668 441.876 -49.2466C451.255 -43.2833 460.332 -36.941 468.711 -30.3104L407.368 -93.6318ZM4.72611 250.645C4.98176 241.556 5.63007 232.519 6.77416 223.853L-3.54052 262.157C-4.48818 265.676 -9.11908 265.643 -9.59745 262.03V262.03C-9.78402 260.621 -10.7925 259.33 -12.1595 258.94L-19.8008 256.762C-30.0043 253.854 -40.0655 261.908 -38.2817 272.367C-35.2211 290.312 -29.4557 306.307 -20.0837 320.582C-3.79006 345.4 22.0034 362.885 57.544 377.218C94.2266 392.011 140.618 396.403 183.243 398.234C199.175 398.919 214.423 399.254 228.675 399.567C253.89 400.12 275.986 400.605 293.229 402.838C317.007 405.917 329.939 417.396 334.197 429.939C338.512 442.652 335.734 461.79 316.599 483.677L316.171 484.166C294.974 508.41 260.044 548.361 239.796 592.957C222.721 630.565 215.145 673.954 236.982 714.238C237.658 715.485 238.823 716.399 240.187 716.787L272.782 726.078C275.406 726.826 278.404 720.622 276.579 718.595V718.595C245.901 684.504 248.955 645.14 267.033 605.323C285.311 565.065 317.539 528.047 339.118 503.365C362.714 476.376 371.357 446.353 362.522 420.325C353.63 394.128 328.842 377.288 297.07 373.173C278.331 370.746 253.36 370.185 226.835 369.589L226.834 369.589L226.832 369.589L226.829 369.589L226.824 369.589C212.927 369.276 198.604 368.954 184.527 368.349C142.082 366.525 100.243 362.184 68.7318 349.476C44.9725 339.894 28.157 329.637 16.283 317.943C10.1216 311.874 6.98937 303.511 6.21289 294.898C5.01035 281.559 4.28815 266.217 4.72611 250.645ZM562.601 571.159C558.916 581.109 546.176 583.054 538.793 575.433C534.457 570.957 533.329 564.339 535.383 558.456C539.944 545.398 541.744 533.502 541.085 522.02C539.871 500.882 530.173 478.605 508.479 450.874C487.544 424.114 453.48 399.434 417.634 376.632C405.745 369.069 393.502 361.629 381.624 354.41L381.618 354.407L381.617 354.406L381.615 354.405C358.941 340.626 337.596 327.654 322.58 316.183C297.122 296.734 284.076 269.755 289.473 242.622C294.836 215.664 317.332 193.985 351.262 182.409C382.291 171.823 428.71 155.879 464.669 130.154C500.233 104.71 522.56 72.1469 513.037 27.2846C512.471 24.6163 518.169 20.743 520.067 22.7022L543.65 47.046C544.636 48.0643 545.189 49.4384 545.151 50.8558C543.92 96.6615 515.665 130.449 482.073 154.482C442.24 182.978 392.014 200.112 361.535 210.51L360.92 210.72C333.405 220.107 321.43 235.292 318.811 248.458C316.227 261.45 321.687 277.857 340.74 292.413C354.556 302.968 373.449 314.436 395.009 327.523L395.015 327.526C407.199 334.922 420.235 342.835 433.688 351.393C469.686 374.291 507.667 401.29 532.039 432.443C555.651 462.626 569.246 490.665 570.948 520.305C571.927 537.353 568.922 554.089 562.601 571.159ZM343.764 746.31C354.335 747.863 365.368 748.817 376.472 749.292C394.227 750.051 411.754 749.572 427.284 748.504C438.619 747.724 447.64 758.343 444.526 769.27V769.27C443.687 772.212 440.622 773.918 437.68 773.079L343.764 746.31Z" fill="white"/>
</g>
</svg>
