<svg width="14" height="20" viewBox="0 0 14 20" fill="none" xmlns="http://www.w3.org/2000/svg">
<path d="M10.2823 1.66514C9.2651 0.971673 8.09383 0.609863 6.76845 0.609863C5.62801 0.609863 4.5492 0.881221 3.65534 1.39379C1.65186 2.53952 0.418945 4.71038 0.418945 7.03199C0.418945 9.38376 1.62104 11.4943 3.65534 12.64C4.5492 13.1526 5.72047 13.4541 6.8301 13.4541C8.09383 13.4541 9.23427 13.1225 10.1898 12.4591V12.5496C10.1898 13.9064 10.0048 14.8109 9.57333 15.4441C9.01851 16.2582 8.09383 16.6803 6.86092 16.6803C4.91908 16.6803 3.8711 15.6551 3.10053 14.6903L2.9156 14.4491L0.727174 16.4391L0.850465 16.62C1.7135 17.9466 3.84028 19.4843 6.98421 19.4843C9.41921 19.4843 11.4227 18.3687 12.4707 16.4089C12.9947 15.4139 13.2104 14.1777 13.2104 12.3988V0.85107H10.2823V1.66514ZM10.1898 9.1727C9.45003 10.1074 8.30959 10.6802 7.13832 10.6802C5.04237 10.6802 3.40876 9.08225 3.40876 7.06214C3.40876 4.98174 4.9499 3.44404 7.01503 3.44404C8.21712 3.44404 9.41921 4.01691 10.1898 4.95159V9.1727Z" fill="#3E4581"/>
</svg>
