<svg width="14" height="20" viewBox="0 0 14 20" fill="none" xmlns="http://www.w3.org/2000/svg">
<path d="M9.77676 1.39379C8.8829 0.881221 7.8041 0.609863 6.66365 0.609863C5.33827 0.609863 4.167 0.971673 3.14985 1.66514V0.881221H0.22168V19.3034H3.24231V12.4893C4.19782 13.1526 5.33827 13.4843 6.60201 13.4843C7.71163 13.4843 8.91372 13.1828 9.77676 12.6702C11.8111 11.4943 13.0132 9.41391 13.0132 7.06214C13.044 4.74053 11.7802 2.56967 9.77676 1.39379ZM6.29378 10.6802C5.15333 10.6802 4.01288 10.1074 3.24231 9.1727V4.92143C4.01288 3.98676 5.18415 3.41389 6.41707 3.41389C8.4822 3.41389 10.0233 4.98174 10.0233 7.03199C10.0233 9.08225 8.38973 10.6802 6.29378 10.6802Z" fill="#3E4581"/>
</svg>
