<svg width="50" height="21" viewBox="0 0 50 21" fill="none" xmlns="http://www.w3.org/2000/svg">
<path fill-rule="evenodd" clip-rule="evenodd" d="M11.8053 6.14081C11.8053 4.03797 10.403 2.7307 7.99887 2.7307H3.64867C3.53424 2.7307 3.47689 2.78765 3.47689 2.90126V9.38037C3.47689 9.49398 3.53424 9.55065 3.64867 9.55065H7.99887C10.403 9.55065 11.8053 8.24366 11.8053 6.14081ZM1.2159 19.6956C1.04439 19.6956 0.929688 19.582 0.929688 19.4114V0.656328C0.929688 0.486039 1.04439 0.372152 1.2159 0.372152H8.14197C11.8911 0.372152 14.3238 2.64556 14.3238 6.14081C14.3238 9.63607 11.8911 11.9092 8.14197 11.9092H3.64867C3.53424 11.9092 3.47689 11.9661 3.47689 12.0798V19.4114C3.47689 19.582 3.36246 19.6956 3.19068 19.6956H1.2159ZM20.2493 19.8378C17.8449 19.8378 16.9005 18.7011 16.9005 16.2572V0.656517C16.9005 0.485958 17.015 0.37207 17.1867 0.37207H19.0184C19.1902 0.37207 19.3046 0.485958 19.3046 0.656517V16.1151C19.3046 17.2518 19.7339 17.6211 20.6783 17.6211H21.2223C21.3938 17.6211 21.5083 17.7347 21.5083 17.9053V19.5534C21.5083 19.724 21.3938 19.8378 21.2223 19.8378H20.2493ZM31.984 15.2911V13.7848C31.984 13.6712 31.9267 13.6143 31.8122 13.6143H29.0648C26.6891 13.6143 25.6587 14.2965 25.6587 15.8308C25.6587 17.2234 26.6892 17.9623 28.5208 17.9623C30.6674 17.9623 31.984 16.9677 31.984 15.2911ZM32.3273 19.6956C32.1555 19.6956 32.0411 19.582 32.0411 19.4114V18.218H32.0124C31.3829 19.2409 30.0376 20.0082 27.9484 20.0082C25.3441 20.0082 23.3407 18.6728 23.3407 15.9162C23.3407 13.0462 25.3441 11.7105 28.6926 11.7105H31.8122C31.9267 11.7105 31.984 11.6538 31.984 11.5399V10.5453C31.984 8.66995 31.2395 7.8741 28.6926 7.8741C27.1471 7.8741 26.1741 8.27189 25.3725 8.84051C25.2297 8.95413 25.0579 8.95413 24.9719 8.81177L24.199 7.50478C24.1136 7.33422 24.142 7.2206 24.2564 7.10699C25.2868 6.3114 26.8896 5.77152 28.9215 5.77152C32.8139 5.77152 34.3021 7.05004 34.3021 10.4035V19.4114C34.3021 19.582 34.1876 19.6956 34.0159 19.6956H32.3273ZM46.9242 19.6957C46.7524 19.6957 46.638 19.582 46.638 19.4115V11.4546C46.638 9.26656 45.6363 7.98777 43.5755 7.98777C41.7154 7.98777 40.4274 9.2953 40.4274 11.3127V19.4115C40.4274 19.582 40.313 19.6957 40.1412 19.6957H38.3096C38.1378 19.6957 38.0233 19.582 38.0233 19.4115V6.36813C38.0233 6.19784 38.1378 6.08395 38.3096 6.08395H40.1412C40.313 6.08395 40.4274 6.19784 40.4274 6.36813V7.61845H40.4558C41.1143 6.56716 42.4309 5.7713 44.291 5.7713C47.2678 5.7713 49.0421 7.78901 49.0421 10.8865V19.4115C49.0421 19.582 48.9277 19.6957 48.7559 19.6957H46.9242Z" fill="#3E4581"/>
</svg>
