<svg width="56" height="32" viewBox="0 0 56 32" fill="none" xmlns="http://www.w3.org/2000/svg">
<path fill-rule="evenodd" clip-rule="evenodd" d="M41.0452 13.1421C40.4411 10.418 38.9538 7.84199 36.5617 5.84923C30.7169 0.979466 22.4275 1.94263 17.7526 7.47457L17.7523 7.47484L17.752 7.47511L0.771801 27.5678C-0.329882 28.8715 -0.244129 30.3217 0.978264 31.3402C2.20066 32.3587 3.65409 32.1905 4.75577 30.8871L14.923 18.856L21.6896 10.8494L21.6909 10.8505C21.7062 10.8318 21.7207 10.8125 21.7363 10.7941C21.8288 10.6846 21.9233 10.5788 22.0192 10.4755C22.0348 10.459 22.0511 10.443 22.0667 10.4261C25.1697 7.14619 30.051 7.08681 33.2581 9.75855C33.2581 9.75855 33.2772 9.77048 33.3132 9.79028C37.0801 12.9734 36.8799 18.071 34.2319 21.2042C34.1396 21.3135 33.9173 21.5554 33.9015 21.5719C30.7988 24.8519 25.9912 24.9224 22.6552 22.2078C21.9588 21.6194 21.3982 20.9656 20.9637 20.2706C20.4426 19.4373 19.2546 19.3533 18.6207 20.1055L16.4431 22.6888C17.1957 23.9562 18.1822 25.129 19.4065 26.1491C25.2513 31.0186 33.5407 30.0554 38.2156 24.5238C38.2156 24.5238 41.9522 20.2215 41.0452 13.1421Z" fill="#3E4581"/>
<path fill-rule="evenodd" clip-rule="evenodd" d="M41.0538 13.1438L51.2213 1.11299C52.323 -0.190752 53.7761 -0.3586 54.9985 0.659606C56.2209 1.67808 56.307 3.12852 55.2053 4.43199L38.2158 24.5233C33.5409 30.0553 25.2512 31.0182 19.4063 26.1487C18.1823 25.1288 17.1959 23.9558 16.4429 22.6887L18.6206 20.105C19.2548 19.3531 20.4427 19.4372 20.9638 20.2705C21.3983 20.9652 21.9675 21.6211 22.6639 22.2095C25.9741 24.9135 30.7935 24.8541 33.8964 21.5742C33.9005 21.5699 34.1589 21.2865 34.2269 21.2062L41.0538 13.1438Z" fill="#3E4581"/>
</svg>
