<svg width="15" height="16" viewBox="0 0 15 16" fill="none" xmlns="http://www.w3.org/2000/svg">
<path d="M4.79638 10.4879C4.79638 11.1885 5.09727 11.6979 5.56715 12.0508C6.00547 12.3754 6.63971 12.5366 7.30102 12.5366C8.20887 12.5366 9.50105 12.1577 9.50105 11.0545C9.50105 9.97915 8.04158 9.76058 7.21906 9.56958C4.2716 8.84649 0.584369 8.76577 0.584369 4.99461C0.584369 1.62895 4.29854 0.713867 7.10892 0.713867C10.245 0.713867 13.521 1.60392 13.6849 5.23612H9.36407C9.36407 4.64603 9.14491 4.26899 8.75722 4.02605C8.37358 3.783 7.84936 3.6757 7.2699 3.6757C6.50274 3.6757 5.26186 3.75631 5.26186 4.72631C5.26186 6.0439 8.40109 6.28894 10.5497 6.74438C13.4388 7.31121 14.182 9.35851 14.182 10.5149C14.182 14.2596 10.5496 15.4961 7.3283 15.4961C3.94275 15.4961 0.474791 14.3931 0.333984 10.4879H4.79638Z" fill="#3E4581"/>
</svg>
