<svg width="42" height="30" viewBox="0 0 42 30" fill="none" xmlns="http://www.w3.org/2000/svg">
<path fill-rule="evenodd" clip-rule="evenodd" d="M41.0451 11.1421C40.441 8.41801 38.9538 5.84199 36.5617 3.84923C30.7168 -1.02053 22.4274 -0.0573723 17.7525 5.47457L17.7522 5.47484L17.752 5.47511L0.771739 25.5678C-0.329943 26.8715 -0.24419 28.3217 0.978203 29.3402C2.20059 30.3587 3.65403 30.1905 4.75571 28.8871L14.9229 16.856L21.6895 8.84943L21.6909 8.85051C21.7062 8.8318 21.7206 8.81255 21.7362 8.79411C21.8288 8.68456 21.9233 8.57881 22.0191 8.4755C22.0347 8.45896 22.0511 8.44296 22.0667 8.42615C25.1696 5.14619 30.051 5.08681 33.258 7.75855C33.258 7.75855 33.2771 7.77048 33.3132 7.79028C37.08 10.9734 36.8798 16.071 34.2319 19.2042C34.1396 19.3135 33.9173 19.5554 33.9014 19.5719C30.7987 22.8519 25.9911 22.9224 22.6552 20.2078C21.9588 19.6194 21.3981 18.9656 20.9636 18.2706C20.4425 17.4373 19.2546 17.3533 18.6207 18.1055L16.443 20.6888C17.1957 21.9562 18.1821 23.129 19.4064 24.1491C25.2513 29.0186 33.5406 28.0554 38.2156 22.5238C38.2156 22.5238 41.9521 18.2215 41.0451 11.1421Z" fill="#3E4581"/>
</svg>
